<?xml version="1.0" encoding="iso-8859-1"?>
<!-- Uploaded to: SVG Repo, www.svgrepo.com, Generator: SVG Repo Mixer Tools -->
<svg fill="#ffffff" height="800px" width="800px" version="1.1" id="Layer_1" xmlns="http://www.w3.org/2000/svg" xmlns:xlink="http://www.w3.org/1999/xlink" 
	 viewBox="0 0 512.005 512.005" xml:space="preserve">
<g>
	<g>
		<path d="M400.904,285.275c-23.554,0-42.716,19.162-42.716,42.716c0,23.554,19.162,42.716,42.716,42.716
			c23.553,0,42.716-19.162,42.716-42.716C443.62,304.437,424.449,285.275,400.904,285.275z M400.904,353.62
			c-14.13,0-25.63-11.499-25.63-25.63s11.499-25.629,25.63-25.629c14.13,0,25.629,11.499,25.629,25.629
			S415.034,353.62,400.904,353.62z"/>
	</g>
</g>
<g>
	<g>
		<path d="M110.437,285.275c-23.554,0-42.716,19.162-42.716,42.716c0,23.554,19.162,42.716,42.716,42.716
			c23.553,0,42.716-19.162,42.716-42.716C153.152,304.437,133.981,285.275,110.437,285.275z M110.437,353.62
			c-14.13,0-25.63-11.499-25.63-25.63s11.499-25.629,25.63-25.629c14.13,0,25.629,11.499,25.629,25.629
			S124.567,353.62,110.437,353.62z"/>
	</g>
</g>
<g>
	<g>
		<path d="M503.422,257.578v-40.648c0-0.273-0.325-1.88-0.496-2.435c-0.171-0.564-0.376-1.076-0.649-1.589
			c-0.128-0.231-34.463-51.977-34.463-51.977c-1.307-1.956-3.366-3.298-5.698-3.691c-214.023-35.924-268.879-0.145-271.382,1.598
			L124.387,208.6l-108.583,8.347c-3.076,0.239-5.784,2.119-7.082,4.904c-0.325,0.683-3.545,7.92-5.989,20.7l-2.247,17.086
			c-1.35,17.941-0.231,41.793,7.757,70.677c1.008,3.656,4.425,6.211,8.219,6.211h25.629c4.741,0,8.535-3.896,8.543-8.637
			c0-0.043,0.009-0.085,0.009-0.137c0.128-32.917,26.843-59.571,59.794-59.571c33.028,0,59.802,26.774,59.802,59.802
			c-0.615,5.186,3.477,8.543,8.543,8.543h153.777c4.741,0,8.535-3.896,8.543-8.637c0-0.051,0.009-0.094,0.009-0.145
			c0.137-32.917,26.843-59.554,59.794-59.554c33.028,0,59.802,26.774,59.802,59.802c-0.615,5.186,3.477,8.543,8.543,8.543h25.629
			c2.982,0,5.844-1.538,7.321-4.126C521.098,299.063,507.608,266.198,503.422,257.578z M272.757,204.123L272.757,204.123
			c0,2.358-1.914,4.272-4.272,4.272l-102.561,0.009c-4.101,0-5.844-5.228-2.563-7.689l37.052-27.799
			c0.128-0.103,0.231-0.171,0.376-0.256c1.939-1.111,19.615-10.474,67.38-13.387c2.452-0.154,4.588,1.82,4.588,4.28V204.123z
			 M361.768,208.395l-67.662,0.009c-2.358,0-4.272-1.914-4.272-4.272v-41.409c0-2.349,1.828-4.272,4.178-4.289
			c13.327-0.094,28.363,0.282,45.304,1.307c1.461,0.085,2.811,0.897,3.528,2.178c3.81,6.817,16.403,29.081,22.656,40.127
			C367.124,204.892,365.04,208.386,361.768,208.395z M470.932,208.386l-79.682,0.009c-1.529,0-2.947-0.82-3.708-2.153
			l-21.537-37.692c-1.717-2.999,0.607-6.715,4.049-6.39c24.519,2.324,52.267,5.852,83.714,11.021
			c1.17,0.196,2.247,0.871,2.913,1.862l17.804,26.706C476.374,204.585,474.341,208.386,470.932,208.386z"/>
	</g>
</g>
</svg>